<svg width="126" height="30" viewBox="0 0 126 30" fill="none" xmlns="http://www.w3.org/2000/svg">
<circle cx="15" cy="15" r="15" fill="url(#paint0_linear_2003_474)"/>
<path d="M47.768 27.32C46.1893 27.32 44.7173 27.032 43.352 26.456C41.9867 25.8587 40.792 25.0373 39.768 23.992C38.744 22.9253 37.944 21.6987 37.368 20.312C36.792 18.9253 36.504 17.4427 36.504 15.864C36.504 14.264 36.792 12.7813 37.368 11.416C37.944 10.0293 38.7333 8.81333 39.736 7.768C40.76 6.72267 41.944 5.912 43.288 5.336C44.6533 4.76 46.1253 4.472 47.704 4.472C49.2827 4.472 50.744 4.76 52.088 5.336C53.4533 5.912 54.648 6.72267 55.672 7.768C56.696 8.81333 57.4853 10.0293 58.04 11.416C58.616 12.8027 58.904 14.296 58.904 15.896C58.904 17.4747 58.616 18.9573 58.04 20.344C57.4853 21.7307 56.696 22.9467 55.672 23.992C54.6693 25.0373 53.4853 25.8587 52.12 26.456C50.776 27.032 49.3253 27.32 47.768 27.32ZM58.392 28.568L47.992 18.168L49.944 16.216L60.312 26.616L58.392 28.568ZM47.704 24.44C49.2827 24.44 50.68 24.0773 51.896 23.352C53.112 22.6053 54.0613 21.592 54.744 20.312C55.448 19.0107 55.8 17.528 55.8 15.864C55.8 14.6267 55.5973 13.496 55.192 12.472C54.808 11.4267 54.2533 10.52 53.528 9.752C52.8027 8.984 51.9493 8.39733 50.968 7.992C49.9867 7.56533 48.8987 7.352 47.704 7.352C46.1253 7.352 44.728 7.71467 43.512 8.44C42.296 9.16533 41.336 10.168 40.632 11.448C39.9493 12.728 39.608 14.2 39.608 15.864C39.608 17.1013 39.8107 18.2533 40.216 19.32C40.6213 20.3653 41.176 21.272 41.88 22.04C42.6053 22.7867 43.4587 23.3733 44.44 23.8C45.4427 24.2267 46.5307 24.44 47.704 24.44ZM69.377 27.32C68.1397 27.32 67.0197 27.0427 66.017 26.488C65.0357 25.912 64.2677 25.1227 63.713 24.12C63.1584 23.1173 62.881 21.9547 62.881 20.632V11.8H65.761V20.504C65.761 21.336 65.8997 22.0613 66.177 22.68C66.4757 23.2773 66.9024 23.736 67.457 24.056C68.0117 24.376 68.6624 24.536 69.409 24.536C70.5397 24.536 71.4251 24.184 72.0651 23.48C72.7051 22.7547 73.0251 21.7627 73.0251 20.504V11.8H75.9051V20.632C75.9051 21.9547 75.6277 23.1173 75.0731 24.12C74.5184 25.1227 73.7504 25.912 72.769 26.488C71.809 27.0427 70.6784 27.32 69.377 27.32ZM86.2258 27.32C84.8392 27.32 83.5805 26.9787 82.4498 26.296C81.3192 25.592 80.4232 24.6427 79.7618 23.448C79.1218 22.2533 78.8018 20.9093 78.8018 19.416C78.8018 17.9227 79.1218 16.5787 79.7618 15.384C80.4232 14.1893 81.3085 13.24 82.4178 12.536C83.5485 11.832 84.8178 11.48 86.2258 11.48C87.3778 11.48 88.4018 11.7253 89.2978 12.216C90.2152 12.6853 90.9512 13.3467 91.5058 14.2C92.0605 15.032 92.3698 16.0027 92.4338 17.112V21.688C92.3698 22.776 92.0605 23.7467 91.5058 24.6C90.9725 25.4533 90.2472 26.1253 89.3298 26.616C88.4338 27.0853 87.3992 27.32 86.2258 27.32ZM86.7058 24.6C88.1352 24.6 89.2872 24.12 90.1618 23.16C91.0365 22.1787 91.4738 20.9307 91.4738 19.416C91.4738 18.3707 91.2712 17.464 90.8658 16.696C90.4818 15.9067 89.9272 15.2987 89.2018 14.872C88.4765 14.424 87.6338 14.2 86.6738 14.2C85.7138 14.2 84.8605 14.424 84.1138 14.872C83.3885 15.32 82.8125 15.9387 82.3858 16.728C81.9805 17.496 81.7778 18.3813 81.7778 19.384C81.7778 20.408 81.9805 21.3147 82.3858 22.104C82.8125 22.872 83.3992 23.48 84.1458 23.928C84.8925 24.376 85.7458 24.6 86.7058 24.6ZM91.2818 27V22.904L91.8258 19.192L91.2818 15.512V11.8H94.1938V27H91.2818ZM98.3836 27V11.8H101.264V27H98.3836ZM101.264 18.328L100.176 17.848C100.176 15.9067 100.624 14.36 101.52 13.208C102.416 12.056 103.706 11.48 105.392 11.48C106.16 11.48 106.853 11.6187 107.472 11.896C108.09 12.152 108.666 12.5893 109.2 13.208L107.312 15.16C106.992 14.8187 106.64 14.5733 106.256 14.424C105.872 14.2747 105.424 14.2 104.912 14.2C103.845 14.2 102.97 14.5413 102.288 15.224C101.605 15.9067 101.264 16.9413 101.264 18.328ZM120.952 27L113.848 19.224L120.888 11.8H124.376L116.536 19.992L116.664 18.328L124.664 27H120.952ZM111.224 27V4.152H114.104V27H111.224Z" fill="white"/>
<defs>
<linearGradient id="paint0_linear_2003_474" x1="4.8" y1="11.7" x2="15" y2="30" gradientUnits="userSpaceOnUse">
<stop stop-color="#D8D8D8"/>
<stop offset="1" stop-color="#8C45FF"/>
</linearGradient>
</defs>
</svg>
